<svg id="svg" xmlns="http://www.w3.org/2000/svg" xmlns:xlink="http://www.w3.org/1999/xlink" width="400" height="398.71794871794873" viewBox="0, 0, 400,398.71794871794873"><g id="svgg"><path id="path0" d="M61.547 7.189 C 39.463 13.123,18.442 33.889,11.194 56.933 L 8.333 66.026 8.333 196.795 C 8.333 319.841,8.472 328.018,10.679 335.256 C 18.448 360.738,40.866 382.068,65.127 387.063 C 77.211 389.551,338.053 388.967,347.892 386.431 C 367.047 381.492,385.410 366.361,394.355 348.144 L 399.359 337.955 399.696 198.846 C 400.077 42.088,400.872 54.993,389.780 38.002 C 379.964 22.965,364.061 11.516,346.846 7.092 C 335.588 4.199,72.343 4.288,61.547 7.189 M352.564 26.424 C 367.816 33.722,378.602 46.018,383.469 61.655 C 386.275 70.671,387.262 317.529,384.539 329.340 C 376.977 362.139,356.305 373.049,301.678 373.067 C 275.528 373.076,266.763 372.054,275.085 369.965 C 279.908 368.755,289.364 359.471,291.281 354.064 C 294.135 346.012,293.655 205.757,290.737 195.212 C 283.949 170.684,264.335 152.096,240.314 147.427 C 225.566 144.561,170.164 146.312,160.897 149.937 C 143.989 156.552,131.700 167.958,124.224 183.974 C 117.506 198.366,116.665 209.398,116.679 282.999 L 116.692 349.359 119.790 356.013 C 122.814 362.508,131.459 370.513,135.449 370.513 C 136.401 370.513,137.179 371.100,137.179 371.817 C 137.179 373.435,90.704 373.415,74.956 371.790 C 51.532 369.374,33.894 354.768,26.774 331.891 C 23.427 321.136,22.990 76.306,26.296 63.615 C 31.203 44.775,48.340 27.468,66.341 23.173 C 69.049 22.526,130.864 22.114,207.692 22.230 L 344.231 22.436 352.564 26.424 M195.041 41.053 C 158.514 48.701,144.972 94.991,171.367 121.971 C 189.802 140.815,219.608 140.761,238.518 121.852 C 272.098 88.272,241.459 31.334,195.041 41.053 M87.794 83.001 C 59.670 93.066,52.804 127.631,75.041 147.204 C 98.725 168.052,136.088 151.021,136.338 119.263 C 136.539 93.827,110.951 74.713,87.794 83.001 M301.204 82.445 C 272.959 90.421,264.475 126.159,286.023 146.390 C 310.793 169.646,351.463 149.422,348.377 115.384 C 346.303 92.513,323.049 76.275,301.204 82.445 M82.692 167.075 C 66.650 171.204,54.455 181.065,47.214 195.763 L 42.949 204.423 42.579 236.506 C 42.056 281.783,41.185 280.769,80.604 280.769 L 104.880 280.769 105.472 241.346 C 106.131 197.411,106.357 195.955,115.268 178.284 C 118.219 172.431,120.362 167.370,120.030 167.038 C 118.495 165.503,88.685 165.532,82.692 167.075 M298.077 166.224 C 288.932 168.158,289.344 167.163,294.300 175.333 C 303.634 190.723,304.263 194.582,304.834 240.064 L 305.345 280.769 329.637 280.769 C 369.313 280.769,368.248 281.987,367.705 237.230 L 367.308 204.487 363.300 196.154 C 352.106 172.875,325.141 160.501,298.077 166.224 M270.805 216.316 L 280.769 226.222 280.769 285.674 C 280.769 338.043,280.520 345.651,278.673 349.542 C 274.725 357.863,276.293 357.692,203.782 357.692 L 138.205 357.692 133.846 353.333 L 129.487 348.974 129.487 284.294 C 129.487 214.219,129.599 212.997,136.385 208.858 C 140.166 206.553,143.679 206.420,200.613 206.415 L 260.841 206.410 270.805 216.316 M145.387 227.429 C 145.010 228.413,144.884 231.442,145.107 234.160 L 145.513 239.103 167.657 239.453 C 193.465 239.862,194.806 239.236,186.450 230.679 L 181.531 225.641 163.802 225.641 C 149.820 225.641,145.928 226.019,145.387 227.429 M205.656 227.397 C 205.272 228.398,205.140 231.442,205.363 234.160 L 205.769 239.103 226.923 239.103 L 248.077 239.103 248.077 232.692 L 248.077 226.282 227.216 225.930 C 210.144 225.641,206.227 225.908,205.656 227.397 M150.733 255.861 C 147.560 259.034,147.826 284.693,151.062 287.622 C 154.412 290.653,182.154 290.740,185.165 287.729 C 188.757 284.137,188.024 260.215,184.212 256.634 C 180.327 252.984,154.212 252.381,150.733 255.861 M205.193 258.256 C 204.350 259.271,203.847 261.723,204.074 263.705 L 204.487 267.308 233.974 267.308 L 263.462 267.308 263.875 263.705 C 264.684 256.643,263.730 256.410,233.974 256.410 C 211.825 256.410,206.438 256.756,205.193 258.256 M176.664 270.833 L 176.282 278.846 167.949 278.846 L 159.615 278.846 159.234 270.833 L 158.852 262.821 167.949 262.821 L 177.045 262.821 176.664 270.833 M204.701 280.342 C 202.807 282.236,203.908 288.404,206.375 289.725 C 207.980 290.584,218.620 290.951,235.511 290.731 L 262.120 290.385 263.332 286.936 C 265.809 279.887,264.203 279.487,233.390 279.487 C 218.081 279.487,205.171 279.872,204.701 280.342 M173.693 309.698 L 166.304 318.115 161.624 313.545 C 155.140 307.213,148.718 307.798,148.718 314.720 C 148.718 318.284,162.675 332.051,166.288 332.051 C 169.964 332.051,188.462 311.395,188.462 307.291 C 188.462 298.648,182.549 299.612,173.693 309.698 M204.701 308.547 C 202.829 310.419,203.904 316.608,206.326 317.904 C 207.794 318.689,219.077 319.231,233.974 319.231 C 263.663 319.231,266.608 318.277,263.324 309.720 C 262.514 307.608,206.755 306.492,204.701 308.547 M205.193 330.051 C 204.350 331.066,203.847 333.518,204.074 335.499 L 204.487 339.103 224.359 339.103 L 244.231 339.103 244.646 334.750 C 244.896 332.132,244.385 329.968,243.364 329.321 C 240.227 327.332,206.921 327.968,205.193 330.051 " stroke="none" fill="#000000" fill-rule="evenodd"></path></g></svg>